<?xml version="1.0" encoding="utf-8"?>
<?xml-stylesheet type="text/xsl" href="rss1.xsl"?>
<rss version="2.0" xmlns:atom="http://www.w3.org/2005/Atom" xmlns:content="http://purl.org/rss/1.0/modules/content/" xmlns:dc="http://purl.org/dc/elements/1.1/" xmlns:media="http://search.yahoo.com/mrss/">
<channel>
 <title>Getty</title>
 <link>http://www.gettyimg.com/</link>
 <atom:link href="http://www.gettyimg.com/" rel="self" type="application/rss+xml" />

 
                <item>
                <title><![CDATA[【Requests】[REQ AUD] - Dream Theater Discography (Lossless)]]></title>
                <link><![CDATA[https://sharemania.us/threads/dream-theater-discography-lossless.224580/]]></link>
                <description><![CDATA[<article>
<blockquote class="messageText SelectQuoteContainer ugc baseHtml">
<a href="https://www.qobuz.com/us-en/interpreter/dream-theater/62194" target="_blank" class="externalLink" rel="nofollow">https://www.qobuz.com/us-en/interpreter/dream-theater/62194</a><br>
<br>
Albums (15):<br>
When Dream and Day Unite<br>
Images and Words<br>
Awake<br>
Falling into Infinity<br>
Metropolis Pt. 2: Scenes from a Memory<br>
Six Degrees of Inner Turbulence<br>
Train of Thought<br>
Octavarium<br>
Systematic Chaos<br>
Black Clouds &amp; Silver Linings<br>
A Dramatic Turn of Events<br>
Dream Theater<br>
The Astonishing<br>
Distance over Time<br>
A View from the Top of the World<br>
<br>
Not MQA please as my devices don't playback the format properly, thanks.
<div class="messageTextEndMarker">&nbsp;</div>
</blockquote>
</article>]]></description>
                <author><![CDATA[Miggas]]></author>
                </item>

                
                <item>
                <title><![CDATA[【Apple Music】WEB-RiP - Demi Lovato - Cool for the Summer (Lyric Video) (1080p)]]></title>
                <link><![CDATA[https://sharemania.us/threads/demi-lovato-cool-for-the-summer-lyric-video-1080p.224579/]]></link>
                <description><![CDATA[<article>
<blockquote class="messageText SelectQuoteContainer ugc baseHtml">
<img src="https://i.imgur.com/Y4Bmmy1.jpg" class="bbCodeImage LbImage" alt="[​IMG]" data-url="https://i.imgur.com/Y4Bmmy1.jpg" style=""><br>
<br>
<div class="bbCodeBlock bbCodeCode">
<div class="type">Code:</div>
<pre>General
Complete name                  : C:\Users\asus\Desktop\Demi Lovato - Cool for the Summer (Lyric Video).mp4
Format                         : MPEG-4
Format profile                 : Base Media
Codec ID                       : isom (isom/iso2/avc1/mp41)
File size                      : 261 MiB
Duration                       : 3 min 40 s
Overall bit rate               : 9 909 kb/s
Frame rate                     : 23.976 FPS
Movie name                     : Cool for the Summer (Lyric Video)
Performer                      : Demi Lovato
Genre                          : Pop
ContentType                    : Music Video
Recorded date                  : 2015-01-01 08:00:00 UTC
Writing application            : Lavf57.29.101
Copyright                      : ℗ 2015 Hollywood Records, Inc. &amp; Island Records, a division of UMG Recordings, Inc.

Video
ID                             : 1
Format                         : AVC
Format/Info                    : Advanced Video Codec
Format profile                 : High@L4
Format settings                : CABAC / 5 Ref Frames
Format settings, CABAC         : Yes
Format settings, Reference fra : 5 frames
Codec ID                       : avc1
Codec ID/Info                  : Advanced Video Coding
Duration                       : 3 min 40 s
Bit rate                       : 9 657 kb/s
Width                          : 1 908 pixels
Height                         : 788 pixels
Display aspect ratio           : 2.40:1
Frame rate mode                : Constant
Frame rate                     : 23.976 (24000/1001) FPS
Color space                    : YUV
Chroma subsampling             : 4:2:0
Bit depth                      : 8 bits
Scan type                      : Progressive
Bits/(Pixel*Frame)             : 0.268
Stream size                    : 254 MiB (97%)
Color range                    : Limited
Color primaries                : BT.709
Transfer characteristics       : BT.709
Matrix coefficients            : BT.709
Codec configuration box        : avcC

Audio
ID                             : 2
Format                         : AAC LC
Format/Info                    : Advanced Audio Codec Low Complexity
Codec ID                       : mp4a-40-2
Duration                       : 3 min 40 s
Bit rate mode                  : Constant
Bit rate                       : 250 kb/s
Channel(s)                     : 2 channels
Channel layout                 : L R
Sampling rate                  : 48.0 kHz
Frame rate                     : 46.875 FPS (1024 SPF)
Compression mode               : Lossy
Stream size                    : 6.57 MiB (3%)
Default                        : Yes
Alternate group                : 1

</pre>
</div>
<div class="bbCodeBlock bbCodeVfcHH HiddenContent">
<div class="attribution type">Hidden Content:</div>
<blockquote>You must either reply or click 'Like' to see the hidden information contained here.</blockquote>
</div>
<div class="messageTextEndMarker">&nbsp;</div>
</blockquote>
</article>]]></description>
                <author><![CDATA[vitalya3]]></author>
                </item>

                
                <item>
                <title><![CDATA[【Apple Music】WEB-RiP - Ellie Goulding - Burn (1080p)]]></title>
                <link><![CDATA[https://sharemania.us/threads/ellie-goulding-burn-1080p.224581/]]></link>
                <description><![CDATA[<article>
<blockquote class="messageText SelectQuoteContainer ugc baseHtml">
<img src="https://i.imgur.com/INBZS7r.jpg" class="bbCodeImage LbImage" alt="[​IMG]" data-url="https://i.imgur.com/INBZS7r.jpg" style=""><br>
<br>
<div class="bbCodeBlock bbCodeCode">
<div class="type">Code:</div>
<pre>General
Complete name                  : C:\Users\asus\Desktop\Ellie Goulding - Burn.mp4
Format                         : MPEG-4
Format profile                 : Base Media
Codec ID                       : isom (isom/iso2/avc1/mp41)
File size                      : 198 MiB
Duration                       : 3 min 58 s
Overall bit rate               : 6 950 kb/s
Frame rate                     : 25.000 FPS
Movie name                     : Burn
Performer                      : Ellie Goulding
Genre                          : Pop
ContentType                    : Music Video
Recorded date                  : 2013-01-01 08:00:00 UTC
Writing application            : Lavf57.29.101
Copyright                      : ℗ 2013 Polydor Ltd. (UK)

Video
ID                             : 1
Format                         : AVC
Format/Info                    : Advanced Video Codec
Format profile                 : High@L4
Format settings                : CABAC / 5 Ref Frames
Format settings, CABAC         : Yes
Format settings, Reference fra : 5 frames
Codec ID                       : avc1
Codec ID/Info                  : Advanced Video Coding
Duration                       : 3 min 58 s
Bit rate                       : 6 677 kb/s
Width                          : 1 908 pixels
Height                         : 764 pixels
Display aspect ratio           : 2.497
Frame rate mode                : Constant
Frame rate                     : 25.000 FPS
Color space                    : YUV
Chroma subsampling             : 4:2:0
Bit depth                      : 8 bits
Scan type                      : Progressive
Bits/(Pixel*Frame)             : 0.183
Stream size                    : 190 MiB (96%)
Language                       : English
Color range                    : Limited
Color primaries                : BT.709
Transfer characteristics       : BT.709
Matrix coefficients            : BT.709
Codec configuration box        : avcC

Audio
ID                             : 2
Format                         : AAC LC
Format/Info                    : Advanced Audio Codec Low Complexity
Codec ID                       : mp4a-40-2
Duration                       : 3 min 58 s
Duration_LastFrame             : -1 ms
Bit rate mode                  : Constant
Bit rate                       : 265 kb/s
Channel(s)                     : 2 channels
Channel layout                 : L R
Sampling rate                  : 48.0 kHz
Frame rate                     : 46.875 FPS (1024 SPF)
Compression mode               : Lossy
Stream size                    : 7.62 MiB (4%)
Default                        : Yes
Alternate group                : 1

</pre>
</div>
<div class="bbCodeBlock bbCodeVfcHH HiddenContent">
<div class="attribution type">Hidden Content:</div>
<blockquote>You must either reply or click 'Like' to see the hidden information contained here.</blockquote>
</div>
<div class="messageTextEndMarker">&nbsp;</div>
</blockquote>
</article>]]></description>
                <author><![CDATA[vitalya3]]></author>
                </item>

                </channel></rss>